<?xml version="1.0"?>
<svg version="1.1" xmlns="http://www.w3.org/2000/svg" width="270px" height="36px" style=""><path fill="#6685ff" d="M51.276,35.342l1.798,0l0-12.267q0-2.436,1.856-4.292t4.292-1.856q2.378,0,4.292,1.856q1.827,1.827,1.827,4.292l0,12.267l1.856,0l0-12.267q0-2.494,1.856-4.292q1.856-1.856,4.263-1.856q2.436,0,4.292,1.856t1.856,4.292l0,12.267l1.798,0l0-12.267q0-3.306-2.32-5.626t-5.626-2.32q-2.175,0-4.089,1.189q-1.943,1.218-2.784,3.103q-1.131-1.943-3.045-3.103q-2.001-1.189-4.176-1.189q-3.277,0-5.597,2.32q-2.349,2.349-2.349,5.626l0,12.267z M93.49536,14.984q-3.248,0-5.452,2.349q-2.175,2.32-2.175,5.655l0,12.412l1.827,0l0-9.106l11.658,0l0,9.106l1.827,0l0-12.412q0-3.335-2.175-5.655q-2.262-2.349-5.51-2.349z M99.35336,24.496l-11.658,0l0-1.508q0-2.494,1.682-4.321q1.711-1.856,4.118-1.856t4.176,1.856q1.682,1.827,1.682,4.321l0,1.508z M116.63272,15.1l-9.106,0l-1.798,0l0,20.387l1.798,0l0-10.208l9.106,0q2.204,0,3.654-1.45t1.45-3.625q0-1.972-1.45-3.509q-1.537-1.595-3.654-1.595z M116.63272,23.481l-9.106,0l0-6.583l9.106,0q1.334,0,2.349,0.957q0.957,1.015,0.957,2.349q0,1.363-0.957,2.32q-1.015,0.957-2.349,0.957z M125.38608,35.342l1.798,0l0-12.267q0-2.436,1.856-4.292t4.292-1.856q2.378,0,4.292,1.856q1.827,1.827,1.827,4.292l0,12.267l1.856,0l0-12.267q0-2.494,1.856-4.292q1.856-1.856,4.263-1.856q2.436,0,4.292,1.856t1.856,4.292l0,12.267l1.798,0l0-12.267q0-3.306-2.32-5.626t-5.626-2.32q-2.175,0-4.089,1.189q-1.943,1.218-2.784,3.103q-1.131-1.943-3.045-3.103q-2.001-1.189-4.176-1.189q-3.277,0-5.597,2.32q-2.349,2.349-2.349,5.626l0,12.267z M175.37744,15.1l-1.798,0l0,2.146q0,2.668-1.856,4.466q-1.827,1.74-4.35,1.74q-2.697,0-4.437-1.74t-1.74-4.466l0-2.146l-1.798,0l0,2.146q0,3.248,1.972,5.51q1.943,2.291,4.93,2.494l0,10.179l1.827,0l0-10.179q3.045-0.232,5.133-2.494q2.117-2.262,2.117-5.51l0-2.146z M209.3608,15.1l-1.827,0l0,12.325q0,2.436-1.856,4.292t-4.292,1.856t-4.292-1.856t-1.856-4.292l0-12.325l-1.827,0l0,12.325q0,2.436-1.856,4.292q-1.914,1.856-4.321,1.856q-2.436,0-4.292-1.856t-1.856-4.292l0-12.325l-1.827,0l0,12.325q0,3.219,2.378,5.597t5.597,2.378q2.204,0,4.147-1.218q1.914-1.189,2.755-3.103q1.044,1.856,3.074,3.103q1.972,1.218,4.176,1.218q3.248,0,5.626-2.378q2.349-2.349,2.349-5.597l0-12.325z M221.47816,14.984q-3.248,0-5.452,2.349q-2.175,2.32-2.175,5.655l0,12.412l1.827,0l0-9.106l11.658,0l0,9.106l1.827,0l0-12.412q0-3.335-2.175-5.655q-2.262-2.349-5.51-2.349z M227.33616,24.496l-11.658,0l0-1.508q0-2.494,1.682-4.321q1.711-1.856,4.118-1.856t4.176,1.856q1.682,1.827,1.682,4.321l0,1.508z M248.96552,15.1l-1.798,0l0,2.146q0,2.668-1.856,4.466q-1.827,1.74-4.35,1.74q-2.697,0-4.437-1.74t-1.74-4.466l0-2.146l-1.798,0l0,2.146q0,3.248,1.972,5.51q1.943,2.291,4.93,2.494l0,10.179l1.827,0l0-10.179q3.045-0.232,5.133-2.494q2.117-2.262,2.117-5.51l0-2.146z"/><path fill="#" d=""/></svg>
