<svg xmlns="http://www.w3.org/2000/svg" version="1.1" width="200" height="100" viewBox="0 0 2000 515"><g transform="matrix(1,0,0,1,-1.2121212121212466,-0.7114354166083672)"><svg viewBox="0 0 396 102" data-background-color="#ffffff" preserveAspectRatio="xMidYMid meet" height="515" width="2000" xmlns="http://www.w3.org/2000/svg" ><g id="tight-bounds" transform="matrix(1,0,0,1,0.2400000000000091,0.14090565532825394)"><svg viewBox="0 0 395.52 101.71818868934346" height="101.71818868934346" width="395.52"><g><svg viewBox="0 0 581.8622100170371 149.6409032911392" height="101.71818868934346" width="395.52"><g transform="matrix(1,0,0,1,186.34221001703713,46.24121113924049)"><svg viewBox="0 0 395.52 57.15848101265822" height="57.15848101265822" width="395.52"><g id="textblocktransform"><svg viewBox="0 0 395.52 57.15848101265822" height="57.15848101265822" width="395.52" id="textblock"><g><svg viewBox="0 0 395.52 57.15848101265822" height="57.15848101265822" width="395.52"><g transform="matrix(1,0,0,1,0,0)"><svg width="395.52" viewBox="-0.1 -33.45 231.43 33.45" height="57.15848101265822" data-palette-color="#6685ff"><path d="M18.21 0L10.69 0Q7.4 0 4.98-1.26 2.56-2.51 1.23-4.64-0.1-6.76-0.1-9.3L-0.1-9.3-0.1-24.15Q-0.1-26.71 1.23-28.82 2.56-30.93 4.98-32.19 7.4-33.45 10.69-33.45L10.69-33.45 18.21-33.45Q21.51-33.45 23.94-32.19 26.37-30.93 27.69-28.82 29-26.71 29-24.15L29-24.15 29-9.3Q29-6.76 27.69-4.64 26.37-2.51 23.94-1.26 21.51 0 18.21 0L18.21 0ZM6.25-29.35L6.25-11.06 8.86-11.06 8.86-28.44 10.06-28.66 12.84-28.66 13.89-28.44 13.89-18.09 16.5-18.09 16.5-28.44 17.55-28.66 20.36-28.66 21.56-28.44 21.56-11.06 24.15-11.06 24.15-29.35 22.61-30.91 20.56-31.25 17.36-31.25 16.04-30.86 15.21-29.17 14.4-30.86 13.06-31.25 9.86-31.25 7.81-30.91 6.25-29.35ZM47.12 0L39.6 0Q36.3 0 33.88-1.26 31.47-2.51 30.14-4.64 28.81-6.76 28.81-9.3L28.81-9.3 28.81-24.15Q28.81-26.71 30.14-28.82 31.47-30.93 33.88-32.19 36.3-33.45 39.6-33.45L39.6-33.45 47.12-33.45Q50.41-33.45 52.84-32.19 55.27-30.93 56.59-28.82 57.91-26.71 57.91-24.15L57.91-24.15 57.91-9.3Q57.91-6.76 56.59-4.64 55.27-2.51 52.84-1.26 50.41 0 47.12 0L47.12 0ZM38.01-11.35L40.45-11.06 45.8-11.06 47.7-11.35 50.12-11.08 50.12-29.39 48.46-30.96 46.02-31.25 40.45-31.25 37.6-30.91 38.21-28.25 40.5-28.71 45.94-28.71 47.41-28.39 47.75-27.1 47.75-21.41 46.02-21.7 40.45-21.7 38.01-21.34 36.45-19.8 36.11-17.8 36.11-14.94 36.45-12.89 38.01-11.35ZM45.85-13.65L40.6-13.65 39.06-13.89 38.72-15.36 38.72-17.46 38.91-18.85 40.6-19.09 45.9-19.09 47.75-18.9 47.75-13.89 45.85-13.65ZM76.02 0L68.5 0Q65.2 0 62.79-1.26 60.37-2.51 59.04-4.64 57.71-6.76 57.71-9.3L57.71-9.3 57.71-24.15Q57.71-26.71 59.04-28.82 60.37-30.93 62.79-32.19 65.2-33.45 68.5-33.45L68.5-33.45 76.02-33.45Q79.32-33.45 81.75-32.19 84.17-30.93 85.49-28.82 86.81-26.71 86.81-24.15L86.81-24.15 86.81-9.3Q86.81-6.76 85.49-4.64 84.17-2.51 81.75-1.26 79.32 0 76.02 0L76.02 0ZM67.01-31.25L67.01-11.06 69.55-11.06 69.55-18.26 76.12-18.26 78.61-18.55 80.17-20.09 80.51-22.19 80.51-27.29 80.17-29.35 78.61-30.91 76.12-31.25 67.01-31.25ZM75.97-20.85L69.55-20.85 69.55-28.66 75.97-28.66 77.66-28.39 77.9-26.95 77.9-22.46 77.56-21.09 75.97-20.85ZM104.92 0L97.4 0Q94.11 0 91.69-1.26 89.27-2.51 87.94-4.64 86.61-6.76 86.61-9.3L86.61-9.3 86.61-24.15Q86.61-26.71 87.94-28.82 89.27-30.93 91.69-32.19 94.11-33.45 97.4-33.45L97.4-33.45 104.92-33.45Q108.22-33.45 110.65-32.19 113.08-30.93 114.4-28.82 115.72-26.71 115.72-24.15L115.72-24.15 115.72-9.3Q115.72-6.76 114.4-4.64 113.08-2.51 110.65-1.26 108.22 0 104.92 0L104.92 0ZM92.96-29.35L92.96-11.06 95.57-11.06 95.57-28.44 96.77-28.66 99.55-28.66 100.6-28.44 100.6-18.09 103.22-18.09 103.22-28.44 104.26-28.66 107.07-28.66 108.27-28.44 108.27-11.06 110.86-11.06 110.86-29.35 109.32-30.91 107.27-31.25 104.07-31.25 102.75-30.86 101.92-29.17 101.12-30.86 99.77-31.25 96.57-31.25 94.52-30.91 92.96-29.35ZM133.83 0L126.31 0Q123.01 0 120.6-1.26 118.18-2.51 116.85-4.64 115.52-6.76 115.52-9.3L115.52-9.3 115.52-24.15Q115.52-26.71 116.85-28.82 118.18-30.93 120.6-32.19 123.01-33.45 126.31-33.45L126.31-33.45 133.83-33.45Q137.12-33.45 139.55-32.19 141.98-30.93 143.3-28.82 144.62-26.71 144.62-24.15L144.62-24.15 144.62-9.3Q144.62-6.76 143.3-4.64 141.98-2.51 139.55-1.26 137.12 0 133.83 0L133.83 0ZM129.87-16.75L129.87-11.06 132.46-11.06 132.46-16.7 138.66-31.25 135.61-31.25 131.17-20.29 126.82-31.25 123.77-31.25 129.87-16.75ZM162.73 0L155.21 0Q151.92 0 149.5-1.26 147.08-2.51 145.75-4.64 144.42-6.76 144.42-9.3L144.42-9.3 144.42-24.15Q144.42-26.71 145.75-28.82 147.08-30.93 149.5-32.19 151.92-33.45 155.21-33.45L155.21-33.45 162.73-33.45Q166.03-33.45 168.46-32.19 170.89-30.93 172.2-28.82 173.52-26.71 173.52-24.15L173.52-24.15 173.52-9.3Q173.52-6.76 172.2-4.64 170.89-2.51 168.46-1.26 166.03 0 162.73 0L162.73 0ZM153.33-11.35L154.92-10.96 156.53-11.35 158.02-12.84 159.63-23.61 161.22-12.84 162.73-11.35 164.32-10.96 165.93-11.35 167.42-12.84 169.37-30.76 166.56-31.25 164.93-13.75 164.27-13.6 163.73-13.79 160.83-30.44 158.41-30.44 155.53-13.79 154.97-13.6 154.33-13.75 152.67-31.25 149.87-30.76 151.82-12.84 153.33-11.35ZM191.64 0L184.12 0Q180.82 0 178.4-1.26 175.99-2.51 174.66-4.64 173.32-6.76 173.32-9.3L173.32-9.3 173.32-24.15Q173.32-26.71 174.66-28.82 175.99-30.93 178.4-32.19 180.82-33.45 184.12-33.45L184.12-33.45 191.64-33.45Q194.93-33.45 197.36-32.19 199.79-30.93 201.11-28.82 202.43-26.71 202.43-24.15L202.43-24.15 202.43-9.3Q202.43-6.76 201.11-4.64 199.79-2.51 197.36-1.26 194.93 0 191.64 0L191.64 0ZM182.53-11.35L184.97-11.06 190.32-11.06 192.22-11.35 194.64-11.08 194.64-29.39 192.98-30.96 190.54-31.25 184.97-31.25 182.11-30.91 182.72-28.25 185.02-28.71 190.46-28.71 191.93-28.39 192.27-27.1 192.27-21.41 190.54-21.7 184.97-21.7 182.53-21.34 180.97-19.8 180.62-17.8 180.62-14.94 180.97-12.89 182.53-11.35ZM190.37-13.65L185.12-13.65 183.58-13.89 183.24-15.36 183.24-17.46 183.43-18.85 185.12-19.09 190.41-19.09 192.27-18.9 192.27-13.89 190.37-13.65ZM220.54 0L213.02 0Q209.72 0 207.31-1.26 204.89-2.51 203.56-4.64 202.23-6.76 202.23-9.3L202.23-9.3 202.23-24.15Q202.23-26.71 203.56-28.82 204.89-30.93 207.31-32.19 209.72-33.45 213.02-33.45L213.02-33.45 220.54-33.45Q223.84-33.45 226.26-32.19 228.69-30.93 230.01-28.82 231.33-26.71 231.33-24.15L231.33-24.15 231.33-9.3Q231.33-6.76 230.01-4.64 228.69-2.51 226.26-1.26 223.84 0 220.54 0L220.54 0ZM216.58-16.75L216.58-11.06 219.17-11.06 219.17-16.7 225.37-31.25 222.32-31.25 217.88-20.29 213.53-31.25 210.48-31.25 216.58-16.75Z" opacity="1" transform="matrix(1,0,0,1,0,0)" fill="#6685ff" class="wordmark-text-0" data-fill-palette-color="primary" id="text-0"></path></svg></g></svg></g></svg></g></svg></g><g><svg viewBox="0 0 172.84846445349282 149.6409032911392" height="149.6409032911392" width="172.84846445349282"><g><svg xmlns="http://www.w3.org/2000/svg" xmlns:xlink="http://www.w3.org/1999/xlink" version="1.1" x="0" y="0" viewBox="5.965000000000005 9.624750182368103 88.07 76.2452498176319" enable-background="new 0 0 100 100" xml:space="preserve" height="149.6409032911392" width="172.84846445349282" class="icon-icon-0" data-fill-palette-color="accent" id="icon-0"><g fill="#ff7961" data-fill-palette-color="accent"><path d="M56.514 71.866c-0.553 0-1.001-0.448-1.001-1.001V14.513c0-0.553 0.448-1 1.001-1 0.551 0 0.999 0.447 0.999 1v56.353C57.513 71.418 57.064 71.866 56.514 71.866z" fill="#ff7961" data-fill-palette-color="accent"></path></g><g fill="#ff7961" data-fill-palette-color="accent"><g fill="#ff7961" data-fill-palette-color="accent"><path d="M18.875 43.261c-0.054 0-0.108-0.007-0.163-0.021-0.357-0.09-0.575-0.451-0.485-0.809 0.056-0.223 0.117-0.447 0.184-0.672 0.104-0.353 0.474-0.555 0.829-0.449 0.354 0.105 0.554 0.477 0.45 0.829-0.061 0.205-0.117 0.411-0.168 0.615C19.446 43.058 19.174 43.261 18.875 43.261z" fill="#ff7961" data-fill-palette-color="accent"></path></g><g fill="#ff7961" data-fill-palette-color="accent"><path d="M18.475 50.814c-0.352 0-0.645-0.274-0.666-0.628-0.024-0.423-0.047-0.848-0.065-1.273-0.016-0.367 0.27-0.68 0.638-0.694 0.37-0.016 0.679 0.27 0.695 0.637 0.019 0.42 0.041 0.838 0.065 1.256 0.021 0.367-0.261 0.681-0.628 0.703C18.5 50.814 18.487 50.814 18.475 50.814zM18.383 47.021c-0.007 0-0.014 0-0.021 0-0.369-0.013-0.657-0.32-0.646-0.688 0.014-0.433 0.039-0.866 0.079-1.303 0.034-0.366 0.354-0.634 0.725-0.604 0.367 0.034 0.637 0.358 0.604 0.725-0.038 0.41-0.061 0.818-0.074 1.224C19.038 46.735 18.742 47.021 18.383 47.021z" fill="#ff7961" data-fill-palette-color="accent"></path></g><g fill="#ff7961" data-fill-palette-color="accent"><path d="M30.726 69.043c-0.358 0-0.654-0.283-0.667-0.645-0.012-0.368 0.276-0.677 0.645-0.688 0.41-0.015 0.811-0.047 1.192-0.101 0.359-0.055 0.701 0.204 0.751 0.569 0.05 0.365-0.205 0.702-0.569 0.751-0.426 0.06-0.874 0.098-1.33 0.112C30.742 69.043 30.734 69.043 30.726 69.043zM28.204 68.902c-0.031 0-0.062-0.002-0.094-0.007-0.437-0.062-0.875-0.143-1.301-0.24-0.359-0.082-0.583-0.44-0.5-0.799 0.083-0.359 0.441-0.584 0.799-0.5 0.39 0.089 0.789 0.163 1.188 0.219 0.364 0.051 0.619 0.389 0.567 0.753C28.816 68.661 28.53 68.902 28.204 68.902zM34.42 68.269c-0.252 0-0.494-0.143-0.606-0.387-0.154-0.335-0.009-0.73 0.327-0.885 0.337-0.156 0.663-0.349 0.967-0.574 0.295-0.221 0.713-0.157 0.932 0.139s0.157 0.713-0.139 0.934c-0.377 0.279-0.782 0.52-1.202 0.713C34.609 68.25 34.513 68.269 34.42 68.269zM24.561 67.873c-0.095 0-0.19-0.02-0.281-0.062-0.419-0.194-0.821-0.428-1.196-0.69-0.302-0.211-0.375-0.627-0.163-0.929 0.211-0.302 0.627-0.375 0.929-0.163 0.311 0.219 0.645 0.411 0.993 0.573 0.333 0.154 0.479 0.551 0.323 0.885C25.052 67.73 24.812 67.873 24.561 67.873zM37.221 65.783c-0.129 0-0.259-0.037-0.374-0.114-0.305-0.206-0.385-0.621-0.178-0.927 0.21-0.311 0.41-0.646 0.612-1.025 0.171-0.325 0.576-0.449 0.901-0.276 0.326 0.173 0.449 0.576 0.277 0.901-0.223 0.422-0.448 0.798-0.685 1.148C37.646 65.681 37.436 65.783 37.221 65.783zM21.68 65.468c-0.206 0-0.409-0.094-0.54-0.273-0.257-0.354-0.5-0.738-0.721-1.143-0.177-0.324-0.058-0.729 0.266-0.905s0.729-0.058 0.905 0.265c0.194 0.355 0.406 0.69 0.629 0.997 0.217 0.298 0.151 0.715-0.146 0.933C21.953 65.427 21.816 65.468 21.68 65.468zM38.9 62.386c-0.08 0-0.162-0.015-0.241-0.046-0.344-0.133-0.514-0.521-0.381-0.863 0.153-0.391 0.298-0.784 0.441-1.174 0.126-0.346 0.512-0.522 0.855-0.396 0.346 0.126 0.523 0.51 0.397 0.855-0.146 0.398-0.294 0.799-0.45 1.197C39.419 62.224 39.167 62.386 38.9 62.386zM20.022 62.069c-0.282 0-0.543-0.18-0.634-0.462-0.133-0.411-0.252-0.831-0.36-1.259-0.09-0.355 0.125-0.719 0.482-0.81 0.355-0.09 0.72 0.126 0.81 0.483 0.102 0.398 0.213 0.791 0.337 1.175 0.113 0.351-0.079 0.727-0.43 0.84C20.159 62.06 20.09 62.069 20.022 62.069zM40.213 58.821c-0.074 0-0.15-0.012-0.224-0.038-0.347-0.123-0.528-0.505-0.405-0.853l0.422-1.191c0.123-0.347 0.506-0.528 0.851-0.405 0.348 0.122 0.529 0.504 0.406 0.851l-0.422 1.193C40.745 58.651 40.486 58.821 40.213 58.821zM19.169 58.374c-0.322 0-0.604-0.233-0.658-0.562-0.068-0.422-0.129-0.847-0.185-1.273-0.047-0.365 0.21-0.699 0.576-0.747 0.36-0.041 0.699 0.21 0.747 0.576 0.054 0.413 0.113 0.823 0.179 1.232 0.059 0.363-0.188 0.706-0.552 0.765C19.24 58.371 19.205 58.374 19.169 58.374zM41.506 55.253c-0.08 0-0.162-0.015-0.241-0.045-0.344-0.134-0.514-0.52-0.381-0.863 0.155-0.399 0.315-0.797 0.482-1.192 0.144-0.339 0.535-0.496 0.875-0.354 0.339 0.144 0.498 0.535 0.354 0.875-0.162 0.382-0.316 0.767-0.467 1.153C42.026 55.091 41.773 55.253 41.506 55.253zM18.724 54.603c-0.343 0-0.635-0.263-0.664-0.611-0.036-0.424-0.067-0.848-0.096-1.272-0.026-0.366 0.252-0.686 0.619-0.71 0.369-0.012 0.686 0.251 0.711 0.619 0.028 0.418 0.06 0.836 0.095 1.252 0.031 0.367-0.242 0.689-0.609 0.72C18.761 54.603 18.742 54.603 18.724 54.603zM43.062 51.792c-0.106 0-0.213-0.025-0.313-0.078-0.325-0.174-0.448-0.578-0.274-0.903 0.204-0.38 0.418-0.758 0.646-1.131 0.191-0.313 0.602-0.416 0.917-0.222 0.314 0.19 0.414 0.602 0.222 0.915-0.214 0.352-0.416 0.706-0.607 1.066C43.532 51.664 43.301 51.792 43.062 51.792zM45.198 48.667c-0.164 0-0.329-0.061-0.458-0.182-0.268-0.253-0.281-0.674-0.029-0.942 0.304-0.323 0.63-0.634 0.969-0.923 0.279-0.24 0.701-0.207 0.939 0.073 0.239 0.28 0.207 0.701-0.073 0.94-0.302 0.259-0.592 0.535-0.864 0.823C45.552 48.597 45.375 48.667 45.198 48.667zM48.215 46.393c-0.246 0-0.483-0.137-0.599-0.373-0.163-0.33-0.026-0.73 0.304-0.893 0.43-0.211 0.861-0.381 1.284-0.504 0.355-0.104 0.724 0.099 0.827 0.452 0.104 0.354-0.1 0.725-0.453 0.828-0.349 0.103-0.708 0.242-1.069 0.42C48.415 46.37 48.314 46.393 48.215 46.393z" fill="#ff7961" data-fill-palette-color="accent"></path></g><g fill="#ff7961" data-fill-palette-color="accent"><path d="M52.531 46.108c-0.102 0-0.206-0.023-0.303-0.073-0.16-0.082-0.329-0.148-0.502-0.198-0.354-0.103-0.558-0.473-0.455-0.827 0.103-0.354 0.472-0.557 0.826-0.454 0.255 0.073 0.502 0.172 0.737 0.293 0.329 0.167 0.458 0.569 0.291 0.896C53.008 45.977 52.774 46.108 52.531 46.108z" fill="#ff7961" data-fill-palette-color="accent"></path></g></g><g fill="#ff7961" data-fill-palette-color="accent"><g fill="#ff7961" data-fill-palette-color="accent"><path d="M60.064 49.858c-0.192 0-0.385-0.084-0.517-0.246-0.148-0.182-0.291-0.368-0.429-0.561-0.216-0.299-0.148-0.716 0.15-0.931s0.717-0.147 0.932 0.15c0.122 0.171 0.25 0.337 0.381 0.499 0.233 0.286 0.188 0.706-0.097 0.939C60.361 49.809 60.213 49.858 60.064 49.858z" fill="#ff7961" data-fill-palette-color="accent"></path></g><g fill="#ff7961" data-fill-palette-color="accent"><path d="M66.333 56.219c-0.213 0-0.421-0.1-0.55-0.287-0.253-0.366-0.538-0.726-0.875-1.101-0.247-0.273-0.223-0.695 0.05-0.941 0.274-0.247 0.696-0.223 0.942 0.051 0.375 0.417 0.695 0.821 0.98 1.232 0.208 0.304 0.133 0.719-0.171 0.929C66.595 56.181 66.463 56.219 66.333 56.219zM63.258 52.985c-0.157 0-0.315-0.056-0.441-0.167l-0.228-0.2c-0.298-0.266-0.598-0.529-0.893-0.797-0.272-0.248-0.294-0.669-0.046-0.943 0.245-0.272 0.668-0.294 0.941-0.046 0.292 0.264 0.587 0.525 0.881 0.785l0.228 0.201c0.275 0.245 0.301 0.665 0.057 0.942C63.626 52.909 63.441 52.985 63.258 52.985z" fill="#ff7961" data-fill-palette-color="accent"></path></g><g fill="#ff7961" data-fill-palette-color="accent"><path d="M75.17 68.259c-0.345 0-0.636-0.267-0.664-0.615-0.028-0.367 0.245-0.688 0.613-0.717 0.43-0.033 0.869-0.121 1.308-0.261 0.349-0.113 0.726 0.081 0.837 0.433 0.112 0.351-0.081 0.726-0.432 0.837-0.535 0.172-1.077 0.279-1.609 0.321C75.204 68.258 75.187 68.259 75.17 68.259zM72.271 67.73c-0.096 0-0.192-0.021-0.284-0.062-0.481-0.228-0.95-0.519-1.392-0.867-0.289-0.228-0.339-0.647-0.11-0.937 0.228-0.289 0.646-0.338 0.936-0.11 0.362 0.285 0.744 0.522 1.135 0.707 0.332 0.156 0.477 0.554 0.319 0.887C72.761 67.589 72.521 67.73 72.271 67.73zM79.226 66.534c-0.194 0-0.386-0.084-0.518-0.246-0.232-0.286-0.19-0.706 0.096-0.938 0.354-0.288 0.691-0.609 0.999-0.956 0.248-0.275 0.669-0.297 0.942-0.053 0.275 0.245 0.298 0.667 0.053 0.941-0.355 0.398-0.743 0.77-1.151 1.102C79.522 66.485 79.374 66.534 79.226 66.534zM69.123 64.666c-0.244 0-0.479-0.134-0.596-0.366-0.226-0.445-0.418-0.932-0.591-1.485-0.11-0.352 0.087-0.726 0.438-0.836 0.351-0.106 0.726 0.087 0.835 0.438 0.15 0.483 0.316 0.902 0.508 1.282 0.166 0.329 0.034 0.73-0.295 0.896C69.327 64.644 69.225 64.666 69.123 64.666zM81.911 63.01c-0.09 0-0.181-0.019-0.268-0.057-0.338-0.148-0.49-0.543-0.342-0.88 0.188-0.428 0.338-0.865 0.444-1.299 0.088-0.358 0.448-0.577 0.807-0.489s0.576 0.448 0.489 0.808c-0.125 0.509-0.299 1.02-0.52 1.519C82.412 62.861 82.168 63.01 81.911 63.01zM67.892 60.381c-0.309 0-0.585-0.215-0.652-0.528-0.089-0.42-0.198-0.916-0.337-1.409-0.1-0.355 0.107-0.723 0.463-0.822 0.354-0.1 0.723 0.108 0.821 0.463 0.148 0.529 0.264 1.051 0.357 1.491 0.077 0.36-0.153 0.715-0.513 0.791C67.984 60.376 67.938 60.381 67.892 60.381zM82.532 58.641c-0.321 0-0.604-0.232-0.657-0.561-0.072-0.441-0.192-0.876-0.36-1.289-0.137-0.343 0.028-0.73 0.37-0.869 0.342-0.136 0.729 0.027 0.868 0.369 0.204 0.507 0.352 1.036 0.438 1.576 0.059 0.364-0.188 0.705-0.551 0.765C82.604 58.638 82.567 58.641 82.532 58.641zM80.58 54.674c-0.201 0-0.399-0.091-0.531-0.263-0.306-0.4-0.616-0.778-0.917-1.143-0.234-0.283-0.194-0.703 0.09-0.938 0.284-0.235 0.705-0.194 0.938 0.088 0.312 0.378 0.633 0.769 0.949 1.184 0.223 0.292 0.167 0.711-0.126 0.935C80.863 54.63 80.721 54.674 80.58 54.674zM77.864 51.125c-0.23 0-0.455-0.119-0.578-0.334-0.302-0.522-0.512-1.023-0.644-1.533-0.093-0.357 0.121-0.721 0.478-0.813 0.355-0.095 0.721 0.122 0.812 0.479 0.102 0.393 0.269 0.786 0.509 1.203 0.184 0.319 0.074 0.728-0.245 0.911C78.091 51.097 77.977 51.125 77.864 51.125z" fill="#ff7961" data-fill-palette-color="accent"></path></g><g fill="#ff7961" data-fill-palette-color="accent"><path d="M77.463 46.792c-0.07 0-0.141-0.011-0.211-0.034-0.35-0.116-0.538-0.493-0.422-0.844 0.072-0.217 0.155-0.44 0.252-0.671 0.142-0.34 0.533-0.5 0.872-0.357 0.34 0.142 0.5 0.532 0.358 0.872-0.083 0.199-0.155 0.391-0.217 0.577C78.003 46.616 77.742 46.792 77.463 46.792z" fill="#ff7961" data-fill-palette-color="accent"></path></g></g><g fill="#ff7961" data-fill-palette-color="accent"><g fill="#ff7961" data-fill-palette-color="accent"><path d="M81.4 41.597c-0.194 0-0.386-0.084-0.518-0.246-0.282-0.347-0.562-0.671-0.846-0.983-0.248-0.272-0.228-0.694 0.045-0.942 0.272-0.246 0.693-0.227 0.942 0.046 0.299 0.33 0.595 0.673 0.893 1.039 0.232 0.285 0.189 0.705-0.097 0.938C81.696 41.548 81.548 41.597 81.4 41.597zM78.645 38.701c-0.162 0-0.324-0.06-0.453-0.179-0.31-0.287-0.634-0.581-0.978-0.888-0.274-0.247-0.297-0.668-0.052-0.942 0.246-0.275 0.669-0.297 0.941-0.053 0.351 0.313 0.679 0.613 0.995 0.905 0.27 0.25 0.286 0.673 0.036 0.942C79.003 38.629 78.824 38.701 78.645 38.701z" fill="#ff7961" data-fill-palette-color="accent"></path></g><g fill="#ff7961" data-fill-palette-color="accent"><path d="M77.869 41.75c-0.069 0-0.14-0.011-0.209-0.034-0.35-0.115-0.54-0.492-0.424-0.842 0.123-0.374 0.382-0.826 0.768-1.341 0.222-0.296 0.639-0.355 0.935-0.135 0.295 0.221 0.354 0.639 0.134 0.934-0.287 0.384-0.495 0.733-0.57 0.96C78.409 41.571 78.148 41.75 77.869 41.75zM80.394 38.686c-0.199 0-0.396-0.089-0.527-0.259-0.227-0.29-0.173-0.709 0.118-0.936 0.736-0.571 1.288-0.776 1.756-0.657 0.356 0.089 0.574 0.451 0.484 0.81-0.084 0.338-0.418 0.551-0.754 0.495-0.045 0.014-0.252 0.083-0.67 0.407C80.68 38.64 80.536 38.686 80.394 38.686z" fill="#ff7961" data-fill-palette-color="accent"></path></g></g><path d="M92.701 85.87c-0.124 0-0.248-0.017-0.37-0.052L56.389 75.451l-48.87 8.178c-0.386 0.065-0.782-0.044-1.082-0.298s-0.472-0.626-0.472-1.019V19.186c0-0.652 0.471-1.208 1.114-1.316l49.168-8.227c0.196-0.033 0.397-0.021 0.59 0.034L93.07 20.128c0.571 0.165 0.965 0.688 0.965 1.281v63.126c0 0.419-0.197 0.814-0.532 1.066C93.269 85.778 92.986 85.87 92.701 85.87zM56.467 72.751c0.126 0 0.249 0.019 0.37 0.053l34.53 9.96v-60.35l-34.979-10.09L8.633 20.315v60.422l47.614-7.967C56.32 72.758 56.394 72.751 56.467 72.751z" fill="#ff7961" data-fill-palette-color="accent"></path></svg></g></svg></g></svg></g><defs></defs></svg><rect width="395.52" height="101.71818868934346" fill="none" stroke="none" visibility="hidden"></rect></g></svg></g></svg>